<?xml version="1.0" standalone="no"?>
<!DOCTYPE svg PUBLIC "-//W3C//DTD SVG 20010904//EN"
 "http://www.w3.org/TR/2001/REC-SVG-20010904/DTD/svg10.dtd">
<svg version="1.0" xmlns="http://www.w3.org/2000/svg"
 width="1280.000000pt" height="853.000000pt" viewBox="0 0 1280.000000 853.000000"
 preserveAspectRatio="xMidYMid meet">
<metadata>
Created by potrace 1.15, written by Peter Selinger 2001-2017
</metadata>
<g transform="translate(0.000000,853.000000) scale(0.100000,-0.100000)"
fill="#000000" stroke="none">
<path d="M7178 8146 c-18 -25 -105 -72 -114 -63 -10 10 -68 -16 -93 -40 -13
-12 -28 -23 -32 -23 -5 0 -9 -9 -9 -19 0 -11 -4 -22 -9 -26 -11 -6 2 -59 18
-79 11 -13 5 -26 -11 -26 -6 0 -32 23 -60 50 -28 28 -53 50 -57 50 -5 0 -14
-18 -21 -40 -7 -22 -17 -40 -23 -40 -5 0 -6 -7 -3 -16 12 -32 -6 -32 -55 2
-59 39 -114 45 -193 18 l-47 -16 22 -24 22 -24 -36 0 c-30 0 -39 5 -51 29 -20
38 -65 91 -78 91 -6 0 6 -18 26 -40 59 -66 46 -91 -57 -106 -112 -17 -163
-156 -98 -269 16 -28 41 -57 55 -64 30 -16 32 -24 11 -41 -21 -18 -19 -66 5
-90 16 -16 17 -20 5 -20 -26 0 -65 -47 -65 -78 0 -32 36 -72 66 -72 19 -1 19
-1 0 -15 -18 -13 -23 -10 -70 38 -28 29 -64 59 -81 66 -16 7 -38 17 -47 22 -9
4 -18 5 -21 1 -2 -4 -2 -1 -1 6 2 6 1 19 -2 27 -5 11 -10 12 -26 4 -28 -15
-34 -4 -14 26 15 23 15 26 1 32 -9 3 -21 1 -28 -6 -20 -20 -27 -12 -27 33 0
62 42 86 66 38 17 -34 21 -35 16 -1 -6 42 -43 56 -90 33 -21 -10 -38 -12 -43
-7 -6 6 -11 43 -12 84 -2 73 -2 74 24 77 20 2 28 -2 32 -17 3 -12 10 -21 16
-21 15 0 -2 42 -22 54 -11 7 -26 5 -52 -7 l-36 -17 2 70 c1 39 8 81 15 95 7
14 9 25 5 25 -26 0 -80 -106 -81 -157 0 -18 -3 -33 -7 -32 -5 0 -33 30 -63 66
-30 36 -56 60 -58 54 -4 -13 15 -130 25 -158 6 -14 2 -13 -21 5 -30 23 -101
29 -141 12 -18 -8 -17 -9 8 -9 40 -1 88 -24 117 -56 l25 -27 -45 6 c-52 8 -90
-8 -105 -42 -7 -17 -15 -21 -30 -16 -47 16 -131 15 -192 -1 -35 -10 -65 -21
-68 -25 -3 -5 12 -23 32 -40 21 -18 30 -30 20 -26 -10 3 -36 6 -58 6 -36 0
-40 3 -58 43 -21 44 -86 115 -97 104 -4 -3 8 -19 26 -34 29 -24 60 -77 60
-101 0 -13 -76 -39 -129 -45 -31 -4 -53 -15 -78 -39 -127 -120 -84 -326 84
-409 42 -21 61 -24 163 -23 103 1 122 4 175 28 33 15 72 39 87 53 36 34 68
120 68 181 0 74 -53 160 -115 187 -27 11 -22 12 61 13 51 0 104 6 123 14 l34
14 -36 24 c-45 31 -52 46 -32 76 17 27 61 32 86 12 20 -17 89 -103 89 -112 0
-3 -13 -6 -30 -6 -42 0 -68 -29 -62 -68 5 -35 22 -44 22 -12 0 18 7 20 54 20
70 0 87 -18 46 -49 -38 -27 -40 -49 -2 -23 22 16 32 17 54 8 l27 -11 -20 -25
c-10 -14 -17 -30 -14 -37 2 -7 0 -15 -4 -17 -5 -3 -9 -41 -9 -83 -1 -66 4 -87
29 -139 16 -34 29 -67 29 -74 0 -17 26 -40 45 -40 9 0 15 -6 12 -12 -7 -21 12
-48 34 -48 11 0 18 -4 14 -9 -3 -5 18 -21 47 -35 42 -20 66 -25 113 -24 72 3
164 -34 213 -85 31 -33 107 -165 99 -173 -3 -3 -20 4 -38 15 -19 12 -46 21
-60 21 -15 0 -36 11 -50 26 -26 29 -197 144 -212 144 -6 0 17 -17 49 -38 33
-22 83 -60 112 -85 l53 -47 -50 0 c-27 0 -53 5 -56 10 -13 22 -54 10 -70 -20
-24 -46 -47 -29 -181 134 -18 21 -34 34 -37 29 -4 -6 27 -49 69 -96 60 -70 70
-87 54 -87 -33 0 -96 -37 -154 -89 l-53 -48 46 -13 46 -14 -43 -19 c-24 -10
-49 -16 -56 -14 -18 7 -4 111 23 171 47 107 14 201 -88 244 -28 13 -64 25 -81
28 -16 4 -35 13 -41 20 -6 8 -17 14 -23 14 -6 0 -4 -6 4 -13 28 -22 50 -61 49
-87 -1 -22 -2 -22 -10 7 -5 18 -21 40 -34 49 -29 19 -30 29 -10 67 10 20 12
35 4 53 -10 29 -47 63 -66 64 -18 0 -16 -11 4 -25 14 -11 15 -18 6 -48 -8 -28
-8 -40 4 -56 14 -20 13 -21 -40 -18 -63 2 -86 -13 -119 -76 -10 -21 -49 -71
-87 -111 -49 -53 -72 -87 -84 -126 -31 -96 -17 -229 32 -286 39 -47 174 -94
271 -94 51 0 53 1 36 19 -16 18 -15 20 17 40 47 29 86 92 101 162 l12 59 34
-18 c18 -10 40 -28 47 -39 12 -18 9 -24 -31 -59 -24 -21 -56 -47 -71 -58 -36
-25 -55 -73 -55 -139 0 -70 15 -114 54 -155 46 -50 85 -75 135 -87 49 -13 42
1 76 -160 5 -25 0 -37 -32 -71 -21 -23 -50 -59 -65 -80 -28 -37 -37 -87 -18
-99 6 -4 10 -12 9 -18 -5 -43 8 -63 90 -130 19 -16 35 -38 36 -51 2 -13 10
-37 19 -54 17 -33 20 -84 7 -117 -7 -18 -11 -15 -30 22 -24 47 -46 63 -89 63
-46 0 -75 -30 -81 -84 l-6 -46 -60 45 c-33 25 -98 65 -145 88 l-85 42 37 70
c79 148 98 273 64 418 -44 187 -128 267 -280 267 l-78 0 8 43 c13 63 6 141
-16 197 -11 28 -20 70 -20 93 0 85 -41 167 -76 153 -18 -7 -20 64 -2 82 15 15
4 26 -17 19 -9 -4 -15 -19 -15 -41 0 -51 -9 -66 -39 -66 -32 0 -65 -33 -106
-104 -15 -28 -54 -78 -86 -112 -35 -38 -62 -78 -70 -103 -12 -40 -12 -40 -40
-26 -32 17 -39 18 -39 8 0 -5 14 -16 30 -25 17 -9 30 -25 30 -36 0 -10 11 -40
24 -66 l24 -47 -49 4 c-27 2 -55 10 -64 17 -8 7 -20 39 -27 71 -7 32 -16 59
-20 59 -11 0 -10 -28 2 -69 13 -45 4 -52 -23 -18 l-22 28 -1 -43 c0 -51 -31
-189 -44 -202 -6 -6 -10 -25 -10 -43 0 -36 -10 -40 -55 -23 -14 5 -24 14 -20
19 10 17 -33 123 -62 153 -19 20 -37 28 -60 28 -46 0 -41 11 17 38 142 67 186
257 79 346 -30 25 -39 28 -90 24 l-58 -4 -10 61 c-6 34 -11 99 -11 144 0 71 4
88 28 130 l27 49 46 -47 c27 -27 70 -58 102 -72 31 -13 57 -26 56 -29 0 -3
-14 -14 -32 -25 -40 -25 -63 -85 -53 -138 17 -90 130 -177 230 -177 64 0 131
39 167 96 19 31 24 52 23 104 0 36 -8 81 -16 100 l-15 35 106 0 c99 0 111 2
174 32 42 20 87 52 118 85 l51 52 -34 30 c-127 113 -228 193 -314 247 -120 77
-230 156 -305 221 -30 26 -60 48 -65 48 -14 0 -53 -62 -75 -119 -13 -36 -19
-76 -19 -134 0 -145 44 -261 128 -338 l44 -41 -28 -29 c-16 -17 -38 -29 -53
-29 -44 0 -145 54 -183 99 l-35 42 5 133 c5 142 -1 164 -38 131 -11 -10 -18
-21 -16 -24 3 -4 -29 -24 -69 -44 -124 -64 -179 -168 -199 -373 l-5 -62 100
38 c55 21 106 43 113 49 10 9 14 -12 19 -102 3 -62 9 -121 13 -130 6 -16 2
-17 -43 -11 -154 20 -216 -176 -98 -313 36 -43 46 -83 20 -83 -8 0 -15 5 -15
12 0 6 -3 8 -6 5 -4 -4 -1 -14 7 -23 13 -16 12 -16 -8 -5 -14 7 -23 8 -23 2 0
-6 -15 -7 -35 -4 -38 6 -46 -8 -21 -36 13 -14 10 -19 -20 -41 -41 -30 -43 -39
-8 -32 26 5 27 4 20 -31 -8 -41 10 -122 33 -150 9 -11 31 -37 49 -57 17 -21
32 -39 32 -42 0 -2 -13 -3 -30 0 -25 4 -30 9 -30 31 0 27 -35 71 -57 71 -7 0
-9 16 -6 44 4 36 1 47 -18 65 -12 11 -35 21 -50 21 -22 0 -28 5 -32 33 -4 25
0 36 19 52 13 11 27 34 30 52 5 26 1 37 -19 57 -32 32 -75 34 -111 5 -22 -17
-27 -29 -25 -58 2 -28 -3 -42 -24 -63 -52 -52 -27 -129 43 -132 22 -1 30 -6
30 -20 0 -14 -3 -16 -12 -8 -7 6 -26 12 -43 14 -68 7 -122 200 -72 256 10 11
46 34 81 51 214 105 251 356 69 471 -62 40 -102 45 -160 21 -26 -11 -65 -22
-85 -24 -36 -5 -38 -4 -44 29 -6 32 2 78 21 129 7 18 6 18 -7 5 -21 -21 -40
-105 -32 -145 5 -31 3 -35 -35 -59 -22 -14 -43 -26 -45 -26 -3 0 1 19 9 41
l15 41 -47 -7 c-73 -11 -146 -42 -178 -75 -37 -38 -106 -180 -88 -180 31 0
146 51 194 86 l54 39 -33 -39 c-42 -48 -52 -75 -52 -137 0 -60 23 -109 79
-166 52 -53 94 -67 187 -61 l73 5 -6 -61 c-5 -54 -2 -68 27 -130 35 -73 32
-86 -18 -86 -22 0 -22 1 -7 30 20 38 19 52 -6 84 -45 57 -139 19 -139 -55 0
-34 31 -69 60 -69 21 0 27 -15 10 -25 -17 -11 -12 -80 8 -98 21 -20 74 -22
104 -6 21 12 21 11 0 -16 -25 -31 -27 -44 -11 -78 14 -31 52 -49 85 -41 22 6
24 4 15 -17 -11 -31 2 -64 33 -85 29 -18 69 -13 99 13 16 15 17 14 17 -10 0
-64 87 -91 135 -42 30 30 32 64 4 99 -15 19 -17 26 -6 26 17 0 53 38 61 65 3
11 -1 32 -9 48 -7 15 -12 27 -11 27 2 0 30 -18 62 -39 54 -36 63 -38 104 -32
25 4 51 11 58 15 8 5 12 1 12 -11 0 -26 19 -43 47 -43 19 0 23 -5 23 -29 0
-39 44 -75 82 -67 32 6 44 -6 23 -24 -23 -19 -18 -52 12 -77 l28 -22 -33 9
c-18 5 -40 6 -49 3 -11 -4 -14 -3 -9 6 11 17 -12 41 -41 41 -22 0 -24 -3 -18
-29 5 -24 1 -32 -24 -51 -34 -23 -42 -47 -13 -35 49 20 49 21 58 -63 5 -44 8
-85 6 -91 -7 -21 -33 -11 -50 19 -22 39 -57 49 -83 23 -11 -11 -20 -30 -21
-44 0 -13 -9 -45 -21 -72 -17 -39 -24 -46 -41 -41 -33 10 -59 40 -60 71 -1 35
-42 53 -82 34 -25 -11 -25 -13 -10 -30 49 -54 -16 -246 -115 -335 -104 -95
-211 -120 -444 -106 -156 9 -166 5 -146 -62 15 -50 72 -107 146 -146 47 -25
59 -27 175 -27 114 1 190 13 265 41 9 4 3 -7 -14 -23 -16 -16 -35 -49 -42 -72
-25 -83 20 -199 91 -236 60 -31 156 -13 220 43 53 44 70 80 70 141 0 42 -5 54
-30 80 -17 17 -46 33 -65 37 -40 7 -41 14 -20 93 26 99 54 155 94 188 l39 33
11 -33 c7 -17 23 -49 36 -69 24 -37 20 -54 -5 -23 -16 19 -31 20 -24 1 3 -7
25 -24 50 -38 l44 -24 -40 -18 c-49 -22 -70 -59 -70 -124 0 -67 46 -136 115
-174 28 -15 45 -28 40 -28 -6 0 -34 -18 -63 -39 -35 -27 -48 -42 -40 -47 7 -4
50 -10 96 -12 83 -5 83 -5 52 -20 -17 -8 -42 -35 -57 -59 -21 -36 -25 -53 -21
-97 2 -29 14 -72 26 -94 12 -23 18 -42 14 -43 -74 -5 -95 -12 -116 -34 -13
-14 -29 -25 -36 -25 -7 0 -10 -8 -7 -20 3 -11 1 -23 -4 -26 -14 -8 -11 -41 6
-74 14 -28 14 -30 -3 -30 -10 0 -37 20 -60 44 l-41 43 10 63 c12 78 -8 168
-51 222 -17 20 -30 43 -30 51 0 22 51 68 82 74 15 3 28 9 28 14 0 18 -28 8
-83 -30 -31 -22 -72 -43 -92 -47 -37 -7 -45 1 -19 20 13 10 3 19 -64 53 -113
58 -146 61 -257 25 l-90 -29 68 -33 c37 -17 99 -37 138 -44 l70 -12 -38 -21
c-52 -30 -126 -108 -157 -167 -44 -83 -33 -183 26 -259 17 -21 34 -55 40 -75
14 -51 19 -54 69 -42 24 6 64 11 89 10 60 -1 128 24 167 62 17 16 36 28 41 24
13 -8 12 -56 0 -56 -6 0 -8 -7 -4 -15 8 -21 -3 -45 -21 -45 -11 0 -9 -8 8 -32
13 -18 27 -35 31 -36 4 -2 8 -12 8 -22 0 -10 12 -23 30 -30 16 -7 28 -16 25
-20 -3 -5 1 -10 7 -13 9 -3 6 -10 -9 -22 -23 -17 -31 -59 -13 -70 18 -11 11
-25 -13 -25 -31 0 -67 -27 -67 -50 0 -10 7 -26 16 -35 15 -15 15 -17 0 -34
-18 -20 -22 -66 -6 -76 7 -4 7 -12 0 -25 -23 -42 -6 -90 31 -90 15 0 16 -4 8
-28 -12 -35 2 -76 31 -92 17 -9 29 -8 60 8 39 19 40 19 57 0 12 -13 27 -18 52
-16 47 4 66 39 49 89 -9 25 -9 34 0 37 7 2 12 15 12 29 0 17 4 23 13 20 17 -6
77 19 77 32 0 6 14 17 30 26 35 18 40 53 11 79 -19 17 -19 18 12 46 30 27 31
28 14 53 -24 37 -22 50 7 43 49 -12 97 33 88 82 -2 7 8 12 27 12 39 0 57 29
40 63 -7 12 -17 25 -23 29 -6 4 0 15 17 28 28 22 35 58 16 77 -17 17 -20 123
-4 147 8 12 19 45 25 74 7 28 16 52 21 52 4 0 6 6 4 13 -2 6 14 24 36 40 22
15 45 38 51 52 11 24 28 34 28 17 0 -5 -9 -27 -20 -50 -32 -67 -50 -173 -46
-273 3 -87 5 -92 37 -126 47 -48 63 -56 134 -64 44 -5 191 70 258 131 l53 48
52 -58 c28 -32 52 -63 52 -69 0 -6 -16 -11 -35 -11 -72 0 -144 -103 -132 -191
9 -66 54 -129 116 -161 46 -24 64 -28 140 -28 64 0 97 5 130 20 24 11 45 20
46 20 2 0 17 -24 34 -54 30 -52 31 -55 16 -90 -14 -32 -14 -37 -1 -42 8 -3 19
-3 24 0 13 8 50 -22 67 -54 13 -25 13 -29 -1 -34 -34 -13 -54 -4 -94 44 -70
83 -151 120 -297 135 -88 8 -193 -9 -263 -43 -58 -29 -120 -99 -137 -156 -9
-28 -10 -24 -17 44 -4 41 -14 98 -21 125 -19 70 -53 248 -60 323 -8 74 -18 77
-105 36 -138 -64 -233 -240 -208 -384 13 -71 64 -164 114 -209 47 -41 135 -81
178 -81 34 0 122 -62 179 -125 87 -98 207 -134 336 -101 78 20 169 65 227 112
l42 35 -9 -38 c-19 -83 -3 -293 22 -293 5 0 9 4 9 9 0 5 21 35 46 67 90 114
102 178 62 329 l-22 83 -19 -24 c-25 -32 -32 -24 -17 20 11 36 62 82 78 72 5
-3 30 -55 56 -116 47 -110 48 -113 37 -171 -5 -33 -27 -91 -48 -130 -34 -63
-61 -98 -184 -241 -29 -34 -39 -53 -34 -67 15 -49 147 -52 241 -6 28 14 74 49
102 79 l52 54 10 -38 c25 -94 60 -341 70 -496 26 -422 -55 -895 -225 -1306 -7
-17 24 -18 560 -18 536 0 567 1 560 17 -63 146 -133 369 -169 540 -90 428 -78
954 30 1331 l15 52 49 0 c54 0 144 35 172 66 28 32 48 90 48 141 -1 59 -35
120 -82 145 l-33 17 75 1 c76 0 120 7 119 19 -1 13 -105 82 -131 88 -34 7 -34
11 -2 74 24 48 26 50 57 43 50 -11 135 -5 166 11 36 18 101 93 101 115 0 9 3
20 7 24 20 20 34 90 34 169 -1 80 -4 109 -17 159 -9 32 244 304 385 416 43 34
61 42 94 42 54 0 135 38 170 79 15 18 27 37 27 42 0 5 8 9 18 9 16 0 19 -8 18
-57 0 -74 23 -122 91 -189 96 -94 163 -126 225 -111 28 7 82 55 91 80 6 17 8
17 31 1 17 -11 35 -14 56 -9 25 5 30 4 30 -12 0 -32 29 -63 59 -63 30 0 71 36
71 63 0 13 6 15 30 10 37 -7 70 18 70 54 0 13 6 23 14 23 23 0 46 40 40 67 -5
18 -2 23 14 23 26 0 51 35 45 60 -3 10 -14 26 -24 36 -25 22 -24 32 4 36 19 3
22 9 21 45 0 29 4 43 13 44 7 1 19 2 26 3 6 1 19 -1 28 -6 11 -5 21 -2 28 6 6
7 32 19 57 26 28 8 42 16 36 22 -12 12 -4 48 10 48 6 0 8 6 5 14 -6 16 27 56
46 56 13 0 41 39 33 47 -2 3 2 23 10 45 l14 40 -86 -7 c-95 -8 -102 -2 -44 38
19 13 34 30 32 37 -1 6 2 17 7 24 18 21 -11 102 -51 146 -21 22 -38 47 -38 55
0 8 -4 15 -10 15 -5 0 -10 19 -10 43 l0 42 -18 -30 c-11 -17 -34 -42 -53 -57
-19 -14 -49 -40 -68 -57 -19 -17 -39 -31 -45 -31 -6 0 -21 -13 -34 -29 l-23
-30 -35 38 c-19 21 -34 44 -34 50 0 6 -3 11 -7 11 -8 0 -73 -72 -73 -81 0 -4
-11 -10 -25 -13 -28 -7 -41 -41 -31 -81 5 -20 3 -25 -14 -25 -11 0 -29 -9 -40
-20 -16 -16 -18 -25 -10 -45 9 -24 8 -25 -32 -25 -68 0 -190 55 -248 112 -104
102 -129 184 -130 430 -1 107 -5 160 -13 166 -18 15 -84 -11 -124 -50 -48 -46
-92 -141 -99 -214 -6 -53 4 -144 22 -221 5 -20 2 -21 -65 -25 -52 -2 -71 0
-71 10 0 17 -19 15 -26 -2 -7 -19 -42 -26 -84 -17 -27 6 -41 3 -63 -12 l-28
-19 7 29 c8 31 11 230 4 252 -4 10 11 18 50 28 77 19 213 64 223 73 10 9 -82
92 -143 128 l-45 27 37 6 c66 10 119 56 144 124 14 39 18 79 19 183 0 99 3
132 13 132 6 0 12 -11 12 -24 0 -29 42 -66 74 -66 12 0 31 7 42 15 30 22 40
18 16 -8 -48 -51 -13 -133 53 -125 32 4 32 3 28 -33 -4 -28 -1 -41 16 -58 25
-25 77 -28 109 -5 21 14 22 14 22 -6 0 -11 11 -32 25 -46 l26 -25 -36 -36
c-22 -22 -34 -42 -30 -51 3 -9 -3 -21 -16 -30 -14 -10 -19 -22 -16 -38 2 -13
1 -24 -4 -24 -13 0 -22 -67 -14 -116 5 -38 15 -54 58 -95 62 -60 116 -89 161
-89 52 0 138 31 144 52 2 10 10 17 17 16 24 -5 95 82 134 164 42 87 61 192 38
202 -7 2 -5 5 4 5 25 1 43 27 24 35 -8 3 -15 12 -15 21 0 18 1 18 34 5 31 -11
35 3 9 32 -21 24 -10 35 43 44 34 5 42 3 48 -11 4 -10 -1 -29 -11 -44 l-17
-26 25 16 c35 24 35 52 -2 93 -17 20 -30 38 -28 40 2 2 28 18 57 35 62 36 97
40 105 11 3 -11 2 -20 -3 -20 -4 0 -10 -9 -13 -20 -7 -28 9 -25 29 5 17 25 16
27 -15 59 l-31 32 37 19 c21 10 65 21 98 24 54 6 58 8 38 19 -26 15 -102 18
-162 8 l-44 -8 59 58 c32 33 76 67 97 76 34 16 43 29 88 124 57 123 75 186 65
237 -7 36 -48 87 -96 119 -20 13 -22 19 -12 26 11 7 8 11 -11 16 -14 3 -32 3
-40 0 -10 -3 -18 5 -25 25 -14 40 -33 41 -25 1 5 -29 4 -30 -23 -29 -40 3 -74
-9 -74 -27 0 -8 -7 -14 -16 -14 -9 0 -32 -16 -50 -35 -34 -36 -46 -76 -48
-150 -1 -39 -2 -40 -51 -51 -83 -20 -80 -21 -77 42 7 112 -49 244 -143 340
-97 99 -208 142 -333 131 -36 -4 -70 -11 -75 -16 -17 -17 41 -292 99 -475 30
-92 54 -174 54 -182 0 -18 -36 -27 -60 -14 -11 6 -29 8 -40 5 -15 -5 -19 0
-22 27 -2 25 3 39 25 60 53 51 24 132 -48 132 -50 0 -89 -42 -82 -88 3 -24 -2
-36 -24 -57 -16 -15 -29 -38 -29 -51 0 -29 25 -67 54 -79 18 -8 17 -8 -9 -6
-23 1 -35 11 -52 42 -13 22 -27 56 -33 75 -9 33 -8 36 40 77 46 41 150 169
150 186 0 19 -20 3 -48 -40 -44 -68 -142 -163 -141 -138 1 42 28 163 49 220
71 190 -3 478 -141 550 -15 8 -67 16 -116 19 -52 3 -101 11 -118 20 -20 11
-24 16 -12 16 9 0 17 2 17 5 0 17 -68 137 -99 175 -20 24 -35 47 -34 51 1 3
-9 12 -22 19 -14 7 -25 17 -25 22 0 4 -23 22 -50 39 -44 27 -70 54 -70 74 0 3
10 -1 22 -9 24 -17 103 -22 112 -7 6 9 -54 37 -101 46 -18 4 -33 10 -33 15 0
4 9 6 20 3 11 -3 27 0 35 7 12 10 20 8 41 -9 29 -23 54 -27 54 -11 0 21 -30
68 -59 93 -16 13 -27 28 -23 31 3 4 7 17 7 28 0 17 10 25 48 37 48 15 62 31
27 31 -17 0 -16 4 12 51 46 72 50 161 12 253 -7 18 -5 18 22 -2 28 -21 114
-41 114 -28 0 4 -5 16 -10 27 -6 10 -12 61 -13 112 -2 113 -16 144 -77 175
-39 20 -55 23 -111 18 -37 -3 -81 -3 -99 0 -27 6 -31 10 -26 29 8 32 -22 64
-66 72 -43 6 -53 -11 -12 -21 22 -6 25 -11 21 -33 -3 -17 2 -32 15 -45 23 -23
25 -21 -30 -37 -48 -14 -82 -57 -82 -105 0 -15 -17 -65 -39 -110 -46 -97 -55
-147 -40 -218 14 -64 33 -104 68 -141 39 -43 74 -57 141 -57 45 0 61 -3 58
-12 -3 -7 -21 -14 -41 -16 -41 -4 -51 -22 -13 -22 14 0 28 -4 31 -10 9 -15
-68 -155 -85 -155 -10 0 -16 13 -18 41 -4 55 -32 82 -67 66 -13 -6 -30 -20
-36 -30 -10 -17 -13 -16 -44 13 -55 51 -63 55 -105 55 l-40 0 0 59 c0 70 -29
143 -74 184 -25 24 -30 35 -27 68 1 22 -2 46 -8 53 -9 10 -8 15 4 20 10 3 15
15 13 28 -3 19 3 23 36 29 22 3 45 14 52 24 7 10 23 23 36 29 31 16 34 43 8
71 l-22 23 25 17 c34 22 38 37 21 70 -20 39 -18 41 20 37 41 -5 76 24 76 63 0
18 5 25 20 25 11 0 29 9 40 20 20 20 18 42 -7 71 -11 13 -9 19 12 39 28 26 32
52 12 72 -7 7 -13 27 -14 43 0 82 -3 98 -15 87 -7 -5 -29 -13 -48 -17 -19 -3
-42 -8 -51 -11 -12 -3 -16 4 -17 32 -1 20 -6 42 -12 48 -5 7 -12 30 -16 52 -3
21 -12 63 -21 92 -8 29 -12 64 -9 78 8 30 6 30 -16 0z m-393 -354 c0 -9 -4
-23 -9 -30 -4 -6 -5 -16 -1 -21 3 -6 -3 -18 -14 -28 -20 -19 -20 -19 9 -53 16
-18 29 -36 28 -39 -2 -20 5 -30 25 -35 12 -3 28 -14 34 -25 11 -17 10 -22 -7
-31 -23 -12 -27 -59 -8 -78 9 -9 8 -12 -5 -12 -58 0 -95 -54 -61 -91 12 -13
15 -23 8 -27 -6 -4 -16 -17 -23 -30 -10 -19 -10 -28 3 -47 10 -15 12 -26 6
-30 -6 -3 -10 -21 -10 -39 0 -17 -5 -37 -12 -44 -8 -8 -8 -15 -1 -24 6 -7 15
-28 21 -46 10 -29 9 -37 -10 -63 -15 -20 -30 -29 -49 -29 -15 0 -41 -11 -58
-25 l-30 -26 -21 21 c-19 19 -19 22 -5 43 19 27 19 57 -1 85 -8 12 -10 22 -5
22 6 0 20 9 31 20 28 28 26 75 -5 106 -24 24 -24 25 -7 52 13 20 24 26 44 24
19 -2 36 5 53 22 64 64 -3 158 -88 123 -19 -9 -38 -25 -42 -36 -4 -15 -15 -21
-34 -21 -73 0 -107 -81 -56 -132 22 -22 23 -27 10 -38 -12 -10 -15 -10 -15 4
0 9 -10 26 -21 37 -18 18 -20 29 -15 69 4 27 11 62 17 79 9 27 16 31 45 31 19
0 48 7 63 15 16 8 31 12 33 9 3 -2 23 13 45 34 40 39 63 97 63 159 0 41 -54
121 -93 139 l-32 14 45 -5 c25 -3 65 -2 90 4 65 13 67 13 65 -7z m278 -181 c3
-14 0 -17 -14 -14 -19 5 -25 24 -13 36 10 9 21 0 27 -22z m548 -170 c16 -16
29 -34 29 -39 0 -6 -13 3 -29 19 -16 16 -39 29 -50 29 -12 0 -21 5 -21 10 0
21 43 9 71 -19z m-1162 -28 c0 -5 -6 -37 -13 -73 -11 -55 -15 -65 -32 -62 -23
4 -55 32 -36 32 25 0 62 48 62 80 0 16 5 30 10 30 6 0 10 -3 9 -7z m49 -295
c9 -11 11 -18 4 -18 -6 0 -23 -12 -36 -27 l-26 -27 2 39 c1 41 29 89 37 63 2
-7 10 -21 19 -30z m312 -13 c0 -21 -17 -27 -24 -9 -10 25 -7 34 9 28 8 -4 15
-12 15 -19z m-380 -38 c0 -36 -4 -54 -12 -55 -7 0 -24 -4 -37 -8 l-24 -7 23
31 c16 21 21 40 18 61 -4 25 -1 31 14 31 15 0 18 -8 18 -53z m230 -161 c0 -2
-3 -11 -6 -20 -9 -23 -34 -20 -34 4 0 13 7 20 20 20 11 0 20 -2 20 -4z m-38
-82 c-3 -15 -8 -22 -14 -16 -9 9 -1 42 12 42 4 0 5 -12 2 -26z m-302 -44 c-20
-13 -33 -13 -25 0 3 6 14 10 23 10 15 0 15 -2 2 -10z m32 -28 c19 -27 57 -45
82 -38 13 3 25 3 28 0 7 -6 -22 -63 -48 -96 l-20 -25 -24 19 c-32 26 -115 68
-135 68 -25 0 -17 17 14 30 16 6 39 22 52 36 27 29 34 30 51 6z m1188 -156 c0
-47 -9 -66 -31 -66 -23 0 -24 8 -3 60 20 49 34 52 34 6z m-90 -7 c0 -5 -7 -9
-15 -9 -15 0 -20 12 -9 23 8 8 24 -1 24 -14z m137 -61 c-3 -8 -6 -5 -6 6 -1
11 2 17 5 13 3 -3 4 -12 1 -19z m-114 -116 c-22 -5 -27 6 -12 24 12 15 14 14
20 -3 4 -12 1 -19 -8 -21z m-720 -40 c-6 -39 18 -72 51 -72 12 0 58 12 104 26
63 20 94 37 131 70 44 40 52 43 76 34 14 -5 51 -10 81 -10 51 0 55 -2 49 -20
-4 -11 0 -33 8 -49 8 -16 13 -40 10 -53 -7 -39 31 -78 77 -78 39 0 70 20 70
45 0 11 8 13 29 9 16 -3 38 -1 51 6 12 6 24 10 26 8 10 -10 -59 -100 -95 -124
-40 -26 -41 -26 -81 -10 -55 22 -73 20 -109 -10 -22 -18 -50 -28 -98 -35 -68
-10 -68 -10 -88 18 -37 52 -122 129 -164 147 -23 11 -43 17 -45 15 -24 -25
-154 -317 -191 -427 -65 -191 -74 -203 -75 -87 0 52 7 111 15 139 21 70 19
197 -5 287 -11 41 -20 88 -20 106 l0 32 54 -6 c52 -5 54 -5 67 25 7 17 22 33
32 36 10 2 21 15 24 27 6 22 7 22 13 3 4 -10 5 -34 3 -52z m-213 -44 c0 -7 -9
1 -20 17 -26 39 -26 55 0 22 11 -14 20 -31 20 -39z m-296 16 c19 -18 39 -54
34 -59 -2 -2 -23 7 -46 21 -35 21 -41 28 -31 40 15 18 24 18 43 -2z m-520 -30
c8 -21 8 -24 -3 -24 -5 0 -11 9 -14 20 -6 24 8 27 17 4z m1929 -123 c14 -36
28 -82 32 -101 3 -19 9 -43 11 -52 4 -13 -3 -18 -31 -24 -42 -8 -91 -50 -101
-88 -16 -64 22 -139 94 -190 35 -25 55 -31 110 -34 57 -3 72 0 102 20 94 63
109 231 27 307 -34 31 -106 40 -138 17 -13 -9 -27 -16 -31 -16 -3 0 -14 26
-23 58 -9 31 -24 78 -35 105 l-19 47 27 -6 c15 -3 46 -10 69 -16 23 -6 52 -8
62 -5 19 5 20 3 6 -24 -21 -39 -19 -49 11 -49 43 0 91 -47 141 -138 l48 -87 0
-110 c0 -109 0 -110 -40 -184 -22 -40 -63 -100 -91 -132 -29 -31 -60 -71 -69
-87 -10 -16 -26 -34 -37 -41 -17 -10 -20 -9 -25 8 -6 25 -23 18 -23 -10 0 -10
-4 -19 -10 -19 -5 0 -10 -18 -10 -40 0 -33 -3 -38 -17 -33 -10 4 -24 14 -32
22 -7 9 -6 4 3 -11 13 -22 13 -28 3 -28 -7 0 -18 5 -25 12 -9 9 -12 8 -12 -5
0 -15 -3 -15 -20 -5 -11 7 -16 14 -10 16 6 2 15 12 20 23 11 20 -1 57 -24 71
-6 4 0 15 17 28 28 22 35 58 16 77 -6 6 -12 36 -14 68 -4 63 -7 71 -27 59 -7
-5 -17 -9 -23 -10 -5 -1 -26 -5 -45 -9 -34 -6 -35 -5 -37 26 -1 18 -7 37 -13
43 -5 5 -10 19 -10 31 0 11 -7 47 -15 79 l-15 59 39 36 c71 66 98 158 66 221
-17 32 -61 60 -97 60 -20 0 -18 4 19 43 44 45 83 111 83 140 0 15 9 11 44 -19
35 -29 51 -53 69 -103z m-1440 107 c19 -13 48 -30 65 -40 54 -29 67 -68 67
-198 l0 -115 -40 -72 c-22 -40 -67 -104 -99 -142 l-59 -70 -46 37 c-25 20 -50
39 -54 43 -5 3 21 23 57 43 100 56 173 151 175 226 2 45 -29 144 -52 169 -44
47 -108 81 -156 81 l-46 0 58 24 c33 14 61 27 65 30 11 11 31 6 65 -16z m962
-285 c0 -64 4 -85 24 -118 l23 -40 -62 -58 c-34 -32 -64 -57 -66 -54 -2 2 1
30 7 63 13 69 5 180 -16 231 -8 19 -15 37 -15 39 0 4 40 11 75 13 l30 1 0 -77z
m99 -188 c20 -8 36 -16 36 -18 0 -1 -18 -3 -40 -4 -29 -2 -48 -10 -64 -28 -13
-14 -29 -25 -36 -25 -7 0 -10 -8 -7 -20 3 -11 1 -23 -4 -26 -14 -8 -11 -41 6
-74 15 -28 14 -30 -3 -30 -19 0 -92 71 -92 89 0 5 22 25 49 44 27 20 64 51 82
71 19 19 35 35 35 35 1 1 18 -6 38 -14z m-2464 -50 c0 -8 -2 -15 -4 -15 -2 0
-6 7 -10 15 -3 8 -1 15 4 15 6 0 10 -7 10 -15z m384 -35 c19 -17 53 -64 75
-105 67 -122 73 -253 16 -365 -39 -77 -76 -131 -88 -127 -6 2 -16 23 -23 48
-11 34 -11 55 -3 95 7 28 10 91 7 140 -5 98 -31 173 -88 244 -33 42 -36 50
-17 50 6 0 26 11 42 25 17 13 33 24 37 25 4 0 23 -14 42 -30z m1310 -222 c-14
-29 -22 -54 -17 -55 39 -13 42 -24 36 -165 -3 -76 -9 -138 -13 -138 -4 0 -5
20 -3 43 5 39 2 46 -23 66 -22 17 -38 22 -65 18 l-35 -5 -24 69 c-13 38 -38
93 -56 123 l-32 54 41 18 c67 30 129 87 172 156 l40 65 3 -98 c2 -90 0 -103
-24 -151z m-1616 195 c15 -16 24 -24 20 -18 -16 19 -7 23 29 13 20 -5 49 -8
65 -6 23 4 35 -3 63 -33 66 -74 96 -158 97 -274 0 -133 -7 -132 -79 15 -35 73
-66 130 -69 127 -3 -3 12 -40 34 -83 44 -88 87 -202 80 -209 -7 -8 -129 75
-135 92 -3 7 6 30 19 51 l25 37 -21 16 c-18 14 -19 19 -7 33 10 12 10 16 1 16
-12 0 -11 17 4 80 5 20 -29 120 -40 120 -17 0 -54 -28 -68 -50 -15 -27 -51
-48 -63 -37 -2 3 1 15 7 27 17 31 22 70 10 70 -5 0 -10 9 -10 20 0 26 6 25 38
-7z m1199 -27 l53 -40 -30 -31 c-17 -17 -30 -35 -30 -40 0 -10 -146 -12 -155
-3 -3 2 -11 33 -18 69 l-13 64 60 16 c69 17 64 19 133 -35z m920 -138 c13 -18
14 -58 2 -58 -6 0 -8 -9 -4 -19 3 -11 -1 -26 -10 -35 -15 -14 -15 -18 2 -46 9
-16 21 -30 25 -30 4 0 8 -8 8 -19 0 -11 12 -23 29 -31 38 -16 47 -39 21 -57
-21 -15 -27 -57 -10 -68 18 -11 10 -25 -15 -25 -27 0 -65 -32 -65 -54 0 -8 7
-22 16 -31 15 -15 15 -17 0 -34 -19 -21 -21 -62 -4 -79 8 -8 8 -15 -1 -26 -7
-8 -11 -27 -9 -43 2 -20 -3 -31 -19 -39 -49 -27 -101 -37 -195 -38 -86 -1 -98
1 -98 16 0 9 5 20 10 23 6 3 10 24 10 45 0 21 -4 42 -10 45 -17 10 -11 25 10
25 56 0 79 82 35 125 -67 68 -174 -15 -119 -93 14 -21 14 -22 -10 -22 -24 0
-25 1 -25 91 0 50 -2 141 -5 202 -5 116 0 107 25 -38 8 -51 8 -81 0 -109 -13
-49 -8 -57 9 -16 7 18 10 49 7 78 -16 129 -28 197 -37 206 -25 25 -10 35 43
29 29 -3 79 0 110 7 65 13 204 79 232 110 21 23 29 25 42 8z m-729 -63 c31
-48 28 -54 -10 -18 -18 17 -42 35 -53 41 -18 10 -17 11 10 12 23 0 35 -8 53
-35z m1903 -60 c-12 -54 -28 -75 -86 -110 -18 -11 -50 -33 -69 -49 -20 -16
-38 -27 -41 -24 -13 13 14 52 64 90 31 25 74 72 96 106 44 68 53 65 36 -13z
m-4268 49 c13 -5 17 -13 13 -28 -3 -11 -6 -30 -6 -40 0 -18 -2 -18 -25 4 -17
16 -24 33 -23 52 1 16 7 26 13 23 5 -3 18 -8 28 -11z m-13 -85 c18 -23 28 -44
23 -48 -6 -3 -15 -16 -22 -28 -17 -34 -28 -28 -23 13 3 26 -1 41 -18 59 -20
21 -21 45 -1 45 4 0 23 -18 41 -41z m2455 -70 c13 -36 14 -52 6 -67 -17 -32
-13 -58 15 -91 44 -53 22 -53 -39 0 l-57 51 26 31 c23 28 25 36 19 86 -8 64 3
60 30 -10z m-1615 11 c-18 -11 -22 -7 -14 14 5 13 10 14 18 6 8 -8 7 -13 -4
-20z m2550 10 c11 -21 4 -25 -19 -11 -7 5 -10 14 -7 20 10 15 14 14 26 -9z
m915 -78 l33 -70 -31 -5 c-37 -5 -45 -1 -29 15 21 21 14 67 -14 95 -20 20 -23
28 -13 34 17 10 14 14 54 -69z m-3158 8 c41 -27 78 -50 83 -50 9 0 32 -61 26
-67 -4 -4 -126 11 -188 23 -24 5 -26 8 -18 25 9 15 6 24 -15 45 l-26 26 26 24
c14 13 29 24 32 24 3 0 39 -22 80 -50z m2901 -15 c-2 -3 -20 -2 -39 2 l-34 7
30 6 c28 6 55 -3 43 -15z m916 0 c3 -8 -5 -25 -19 -39 -18 -18 -25 -36 -25
-63 l0 -38 18 30 c41 66 72 70 104 14 l21 -37 -22 -43 c-12 -24 -28 -53 -37
-64 -13 -17 -16 -18 -24 -5 -5 8 -10 18 -10 22 0 4 -11 15 -25 24 -22 14 -26
14 -55 -2 -36 -22 -39 -33 -6 -27 21 4 26 -1 41 -46 20 -62 10 -94 -20 -61
-10 11 -28 20 -39 20 -19 -1 -18 -2 7 -18 20 -12 27 -25 27 -49 0 -30 -1 -31
-29 -23 -16 4 -32 6 -34 3 -3 -2 -19 -6 -35 -8 -17 -2 -45 -11 -61 -20 -29
-15 -31 -14 -31 4 0 10 -7 24 -15 31 -12 10 -9 17 20 45 56 52 44 104 -30 130
-25 8 -34 15 -25 18 8 3 36 12 62 20 26 9 68 30 93 47 44 30 125 122 125 141
0 15 17 10 24 -6z m-807 -77 c14 -15 14 -18 1 -18 -8 0 -25 14 -37 31 -19 25
-21 33 -10 40 10 6 16 1 22 -14 4 -12 15 -30 24 -39z m-511 -7 c-19 -14 -42
-32 -52 -39 -18 -12 -18 -12 1 -11 52 3 58 0 51 -28 -4 -16 -8 -38 -9 -50 -1
-15 -25 -38 -74 -72 -40 -27 -73 -46 -73 -41 0 5 14 16 30 25 34 18 39 48 14
76 -15 17 -14 20 12 43 29 25 29 25 11 56 -19 36 -14 54 13 45 21 -7 61 10 73
32 7 11 12 11 23 2 11 -9 8 -16 -20 -38z m991 -9 l9 -58 -32 20 c-17 12 -30
26 -28 31 27 83 38 84 51 7z m-2212 -13 l40 -41 -35 7 c-19 4 -50 14 -69 21
l-33 14 23 20 c13 10 26 19 29 20 3 0 24 -18 45 -41z m-15 -45 c93 -24 99 -27
65 -32 -16 -2 -41 -13 -53 -25 -20 -18 -23 -29 -19 -64 2 -24 2 -43 -2 -44 -3
0 -28 -3 -56 -5 -55 -5 -113 -21 -133 -37 -7 -5 -14 -8 -16 -6 -2 2 8 43 23
92 18 59 32 89 44 93 10 3 25 17 34 30 10 16 22 23 32 20 9 -2 45 -12 81 -22z
m2090 -14 c-5 -9 -8 -34 -7 -56 3 -36 -19 -94 -35 -94 -4 0 -5 13 -2 28 4 21
-1 36 -20 59 -19 22 -22 33 -14 41 9 9 19 4 41 -21 15 -17 25 -25 21 -17 -4 8
-15 24 -25 35 -11 13 -16 29 -13 42 5 18 9 19 34 10 22 -9 27 -14 20 -27z
m-3297 11 c21 -5 41 -12 44 -14 7 -7 -45 -76 -75 -101 -27 -22 -26 -54 3 -70
11 -6 22 -12 24 -14 7 -4 -41 -52 -52 -52 -5 0 -2 11 6 24 15 22 15 24 -1 19
-25 -6 -56 61 -36 78 19 16 17 32 -6 62 -17 22 -18 26 -5 37 8 7 15 19 15 26
0 16 28 17 83 5z m955 -31 l72 -5 -65 -58 c-36 -32 -62 -51 -59 -43 10 25 -17
89 -50 121 l-31 29 30 -19 c19 -12 56 -21 103 -25z m-548 -96 c109 -59 221
-149 213 -172 -3 -9 -2 -14 2 -9 14 12 85 -64 85 -90 0 -23 -1 -23 -24 -7 -14
8 -35 14 -48 11 -21 -3 -21 -5 10 -16 17 -7 32 -19 32 -26 0 -8 -29 2 -80 27
-99 49 -178 65 -249 51 l-51 -10 -35 46 c-44 55 -104 98 -153 107 l-37 7 60
17 c58 15 136 61 164 94 8 9 16 16 20 16 3 0 44 -21 91 -46z m989 33 c-2 -1
-12 -9 -21 -16 -15 -12 -18 -11 -18 3 0 10 8 16 22 16 12 0 19 -1 17 -3z
m-611 -49 c11 -23 10 -36 -3 -80 -26 -88 -28 -89 -80 -38 -44 44 -45 47 -34
80 23 71 91 93 117 38z m-1328 -8 c-8 -6 -22 -10 -30 -9 -9 0 -5 6 10 14 27
14 44 10 20 -5z m3000 -10 c0 -25 101 -145 166 -198 21 -17 24 -21 9 -17 -61
19 -123 26 -171 20 -50 -6 -201 -72 -249 -108 -14 -11 -25 -12 -42 -4 -13 6
-23 14 -23 18 0 22 136 172 210 232 83 66 100 76 100 57z m-1112 -28 c1 -19
-6 -36 -23 -52 l-25 -23 0 26 c0 14 -5 29 -11 33 -6 4 1 13 18 24 37 25 38 24
41 -8z m-1761 -9 c18 -3 30 -9 27 -14 -8 -13 -122 -11 -147 3 -21 12 -21 13
13 19 19 4 44 5 55 2 11 -3 35 -7 52 -10z m2646 -35 c-23 -23 -46 -39 -49 -35
-4 4 1 13 11 21 11 8 16 20 12 29 -4 12 2 17 26 20 18 2 34 5 37 5 3 1 -14
-17 -37 -40z m-2777 -72 c3 -28 11 -62 16 -76 l10 -25 15 34 c14 33 12 76 -5
119 -5 15 37 -17 133 -103 l35 -31 -26 -38 -26 -38 33 7 c61 13 133 44 187 79
28 19 52 34 52 33 0 -1 -7 -20 -15 -42 -18 -50 -19 -198 -1 -247 15 -43 6 -52
-45 -41 -27 5 -36 -1 -94 -61 -36 -36 -65 -71 -65 -78 0 -7 -9 -19 -20 -26
-11 -7 -20 -22 -20 -35 -1 -43 -27 9 -34 68 -6 55 -56 206 -76 230 -7 9 -3 15
14 23 35 16 62 76 50 110 -8 23 -15 27 -49 26 -22 0 -47 -4 -56 -8 -13 -6 -18
0 -22 26 -3 18 -15 60 -26 92 -12 33 -21 71 -21 85 l1 26 24 -29 c14 -18 26
-50 31 -80z m1684 75 c0 -29 -2 -31 -74 -43 -35 -6 -26 17 17 44 53 35 57 35
57 -1z m235 -2 c4 -6 -3 -21 -15 -34 -17 -18 -21 -33 -18 -59 5 -41 -6 -47
-23 -13 -7 12 -16 25 -22 28 -10 7 49 89 64 89 4 0 11 -5 14 -11z m564 -47
c-13 -37 3 -79 35 -93 20 -10 31 -8 60 9 33 20 35 20 51 2 15 -16 13 -22 -26
-79 l-43 -61 -31 58 c-39 70 -83 102 -140 102 -29 0 -45 5 -49 15 -3 8 0 15 7
15 7 0 30 9 52 20 22 11 47 20 57 20 10 0 18 5 18 10 0 6 4 10 9 10 6 0 6 -11
0 -28z m-2588 -15 c-13 -13 -26 -3 -16 12 3 6 11 8 17 5 6 -4 6 -10 -1 -17z
m2199 13 c0 -5 -4 -10 -10 -10 -5 0 -10 5 -10 10 0 6 5 10 10 10 6 0 10 -4 10
-10z m-2146 -26 c9 -24 7 -34 -8 -34 -14 0 -28 34 -18 44 10 10 20 6 26 -10z
m1643 -6 c-9 -33 18 -86 47 -94 l26 -6 -20 -25 c-11 -14 -20 -36 -20 -48 0
-30 37 -75 62 -75 14 0 18 -5 14 -16 -3 -9 -6 -19 -6 -23 0 -5 -9 -20 -21 -35
-17 -22 -24 -24 -35 -15 -10 8 -13 22 -9 41 14 64 -57 92 -97 38 -12 -16 -27
-30 -32 -30 -6 0 -26 28 -44 62 -35 65 -34 71 15 84 49 13 60 -5 38 -60 -8
-18 -7 -18 13 0 32 27 27 58 -15 91 -42 34 -41 39 29 93 58 46 62 48 55 18z
m661 14 c12 -8 -103 -68 -173 -89 -19 -6 -31 -17 -33 -31 -2 -12 -2 -22 0 -22
2 0 41 15 86 34 45 19 82 32 82 29 0 -23 -25 -43 -54 -43 -21 0 -47 -11 -72
-30 -55 -41 -64 -39 -64 17 0 42 4 49 42 82 22 20 51 41 62 48 24 14 104 17
124 5z m72 -37 c0 -8 -7 -15 -15 -15 -7 0 -31 -20 -51 -45 -44 -52 -64 -50
-33 4 27 49 99 89 99 56z m-1200 -86 c113 -53 123 -64 62 -65 -35 -1 -63 -11
-107 -37 -41 -25 -78 -38 -116 -43 l-57 -6 -7 43 c-4 24 -16 67 -26 94 -11 28
-19 51 -19 52 0 6 64 11 117 8 49 -2 82 -12 153 -46z m2020 36 c30 -8 87 -30
126 -50 76 -39 207 -136 196 -146 -9 -8 -119 -43 -197 -63 l-59 -15 -29 29
c-16 17 -37 31 -46 31 -9 1 23 5 70 9 47 4 91 10 97 14 16 10 -82 83 -130 98
-30 9 -51 8 -104 -6 -37 -9 -70 -18 -72 -21 -3 -3 8 -16 24 -30 l29 -25 -37 0
c-34 0 -68 20 -68 40 0 13 -60 80 -72 80 -5 0 4 -14 21 -30 28 -28 48 -67 39
-75 -7 -7 -160 50 -160 60 -1 13 124 81 182 99 59 19 122 19 190 1z m-3395
-26 c15 -12 41 -25 58 -29 30 -8 30 -8 -12 -9 -33 -1 -51 5 -68 21 -42 39 -24
53 22 17z m2204 -91 c-3 -46 -14 -105 -24 -131 -20 -55 -16 -126 9 -176 17
-31 23 -215 10 -279 -6 -31 -7 -31 -35 -17 -15 8 -36 15 -46 15 -10 0 -24 4
-32 9 -12 8 -12 13 2 35 9 14 17 33 16 43 0 14 -2 15 -6 3 -15 -43 -68 -53
-77 -14 l-7 25 -18 -23 -19 -23 -18 37 c-16 35 -16 39 -1 56 37 40 11 102 -42
102 -34 0 -44 9 -30 26 6 7 17 39 24 71 8 32 22 76 31 98 l17 40 8 -35 c6 -26
2 -46 -13 -80 -29 -65 -38 -100 -27 -100 20 0 69 59 75 89 9 44 21 38 28 -13
10 -62 63 -147 104 -163 l33 -13 -2 75 c-2 62 -6 76 -21 81 -10 3 -18 9 -18
15 0 5 -18 20 -40 34 -73 46 -114 103 -50 70 33 -17 68 -19 90 -5 13 9 13 11
0 20 -18 12 -79 30 -102 30 -9 0 -20 5 -24 11 -5 8 1 10 19 7 16 -3 31 0 38 9
10 11 15 11 33 -6 12 -10 31 -22 44 -26 29 -9 29 12 -1 56 l-23 34 31 15 c16
8 36 30 44 48 8 17 17 32 20 32 3 0 3 -37 0 -82z m801 -36 c25 -20 47 -37 49
-39 2 -1 -8 -13 -24 -25 -38 -29 -65 -93 -65 -154 0 -76 58 -158 135 -189 11
-4 51 -11 89 -14 42 -4 71 -11 74 -18 2 -9 -7 -13 -28 -13 -20 0 -40 -9 -57
-26 -22 -22 -24 -31 -19 -65 3 -21 2 -39 -3 -39 -4 0 -44 -29 -87 -64 l-78
-64 -13 26 c-6 15 -20 36 -30 47 -30 34 -132 97 -161 100 -57 6 -92 18 -92 32
0 54 135 407 195 508 31 54 44 53 115 -3z m137 -34 c-22 -14 -52 -8 -82 16
l-30 25 62 -17 c38 -10 58 -19 50 -24z m-2991 -51 c3 -9 16 -23 29 -30 13 -6
49 -43 80 -82 l56 -70 -33 -6 c-18 -3 -44 -11 -57 -18 -21 -12 -28 -10 -64 16
-85 59 -124 148 -92 207 18 33 18 33 47 17 15 -9 31 -24 34 -34z m1094 35 c0
-4 -11 -24 -25 -45 -21 -31 -32 -37 -60 -37 -39 0 -39 0 -26 32 5 13 12 31 15
41 4 13 16 17 51 17 25 0 45 -3 45 -8z m-911 -105 c11 -34 22 -78 26 -97 l6
-35 -21 28 c-12 15 -41 51 -65 80 -37 44 -41 53 -27 58 10 4 24 14 31 23 19
23 27 14 50 -57z m1546 43 c3 -5 -1 -10 -9 -10 -9 0 -16 5 -16 10 0 6 4 10 9
10 6 0 13 -4 16 -10z m-185 -68 c22 -50 22 -53 5 -66 -20 -15 -24 -81 -8 -158
12 -60 27 -77 74 -84 29 -5 39 -12 44 -31 3 -14 5 -27 3 -28 -2 -2 -22 0 -44
4 -39 7 -41 6 -36 -13 3 -12 14 -29 24 -38 19 -16 19 -17 -4 -29 -13 -6 -36
-23 -51 -35 l-29 -24 36 0 c38 0 41 -5 27 -43 -8 -20 -3 -72 13 -132 11 -42
99 -147 172 -204 19 -15 31 -38 40 -78 17 -71 94 -527 94 -551 -1 -9 -16 35
-35 98 -82 278 -196 508 -349 705 -59 75 -262 283 -298 305 l-28 17 35 1 c45
2 155 55 155 74 0 5 7 16 15 26 42 47 63 81 75 117 7 22 16 49 21 60 16 43 27
112 22 140 -8 40 0 31 27 -33z m208 16 c-4 -27 -28 -36 -28 -10 0 20 8 32 22
32 5 0 8 -10 6 -22z m-738 -7 c-5 -11 -7 -27 -4 -36 4 -9 -2 -25 -12 -36 -15
-17 -16 -24 -6 -40 7 -11 8 -19 2 -19 -5 0 -10 -21 -10 -47 1 -58 33 -119 80
-150 43 -30 36 -29 -41 6 -35 16 -96 39 -136 51 l-72 22 -6 46 c-3 26 -7 54
-9 63 -2 11 3 15 19 11 15 -2 24 2 29 15 22 62 98 132 144 133 29 0 32 -2 22
-19z m-1275 -134 c-14 -43 -25 -84 -25 -92 0 -19 -10 -19 -38 1 -13 9 -39 16
-59 17 -30 1 -33 3 -18 12 41 23 116 87 136 115 13 16 24 28 25 27 2 -2 -8
-38 -21 -80z m2680 53 c22 -11 52 -20 68 -20 19 0 28 -4 25 -12 -3 -7 -24 -71
-48 -142 -35 -106 -49 -136 -81 -168 -22 -22 -39 -44 -39 -48 0 -5 -12 -22
-26 -39 -21 -25 -25 -38 -20 -64 3 -17 8 -44 10 -59 3 -15 9 -36 15 -45 7 -13
0 -58 -25 -158 -33 -136 -114 -523 -132 -635 -6 -40 -10 42 -15 305 -4 198
-10 497 -13 665 l-6 305 58 0 c50 1 66 6 107 34 27 18 55 48 64 67 9 19 17 34
18 34 0 0 18 -9 40 -20z m1699 -36 c5 -14 4 -15 -9 -4 -17 14 -19 20 -6 20 5
0 12 -7 15 -16z m-820 -142 l-17 -26 -14 38 c-12 37 -12 40 15 70 l27 31 3
-43 c2 -29 -3 -53 -14 -70z m-1531 -23 c-4 -13 -9 -17 -15 -11 -11 11 -3 32
12 32 4 0 6 -9 3 -21z m-1398 -88 l85 -84 77 -7 c43 -4 84 -6 93 -3 8 3 2 -7
-13 -21 -15 -14 -39 -26 -52 -26 -40 0 -169 -30 -176 -41 -4 -7 -19 -7 -48 2
-22 7 -41 14 -41 16 0 16 36 72 58 90 15 13 21 23 14 23 -18 0 -60 -48 -78
-87 -13 -30 -18 -33 -57 -33 l-42 1 28 24 28 25 -28 11 c-15 6 -41 13 -56 16
l-28 6 40 23 c38 23 81 90 81 125 0 18 10 31 22 27 4 -2 46 -41 93 -87z m3337
27 c38 -72 123 -159 197 -203 49 -29 62 -47 41 -60 -5 -3 -10 -19 -10 -35 0
-29 -28 -49 -50 -35 -5 3 -10 2 -10 -3 0 -5 -16 -4 -37 3 -29 10 -39 20 -44
42 -8 40 -44 107 -79 146 -16 19 -39 55 -50 82 -24 56 -53 95 -83 112 -19 11
-15 12 35 13 l57 0 33 -62z m-202 38 c0 -2 -7 -6 -15 -10 -8 -3 -15 -1 -15 4
0 6 7 10 15 10 8 0 15 -2 15 -4z m-2683 -18 l46 -11 -61 -22 c-34 -12 -73 -30
-87 -39 -20 -13 -25 -14 -25 -2 0 7 9 16 20 19 11 3 28 19 37 36 10 17 19 31
21 31 2 0 24 -5 49 -12z m2513 -33 c11 -13 8 -15 -19 -15 -31 0 -42 14 -18 23
20 9 24 8 37 -8z m-2125 -15 c3 -6 -1 -7 -9 -4 -18 7 -21 14 -7 14 6 0 13 -4
16 -10z m2215 -29 c0 -30 -14 -32 -27 -5 -10 21 -9 24 8 24 12 0 19 -7 19 -19z
m-268 -38 c2 -10 -7 -34 -21 -53 l-25 -35 30 27 c21 20 33 25 40 18 8 -8 1
-21 -21 -45 -17 -19 -36 -35 -41 -35 -17 0 -11 119 6 130 22 14 28 12 32 -7z
m237 -100 c-5 -16 -18 -46 -28 -68 -10 -22 -21 -47 -24 -56 -8 -24 -137 -43
-137 -20 0 5 -2 16 -5 23 -4 10 4 14 31 14 50 0 78 34 71 86 l-5 37 42 4 c22
2 47 4 53 5 9 2 10 -5 2 -25z m941 -23 c5 0 10 -7 10 -15 0 -8 -8 -15 -18 -15
-18 0 -56 -32 -48 -41 2 -2 6 -16 10 -31 5 -22 3 -28 -11 -28 -37 0 -70 -58
-43 -75 6 -3 10 -19 10 -34 0 -16 10 -37 25 -51 22 -21 23 -25 10 -40 -11 -12
-12 -19 -3 -28 9 -9 7 -15 -8 -26 -10 -8 -20 -14 -21 -13 0 1 -3 31 -6 67 -7
80 -41 174 -70 195 -12 9 -39 18 -59 21 -37 6 -37 7 -23 34 10 19 25 30 49 34
19 4 58 26 88 50 l52 44 23 -24 c12 -13 27 -24 33 -24z m-3756 16 c-5 -21 3
-29 70 -71 42 -26 76 -50 76 -54 0 -3 -3 -16 -6 -27 -5 -19 -9 -21 -37 -12
-78 25 -276 142 -262 156 3 3 128 28 158 31 4 1 5 -10 1 -23z m4016 9 c0 -8
-6 -15 -14 -15 -20 0 -29 17 -14 23 22 9 28 7 28 -8z m-1446 -51 c9 -24 7 -28
-9 -14 -17 14 -20 30 -6 30 5 0 12 -7 15 -16z m862 -15 c3 -6 2 -15 -3 -20 -5
-5 -14 0 -21 11 -10 17 -10 20 2 20 8 0 18 -5 22 -11z m74 -19 c0 -4 -9 -10
-20 -13 -11 -3 -20 -4 -20 -2 0 2 -3 10 -6 18 -4 11 1 13 20 10 14 -3 26 -9
26 -13z m-1176 -51 c-6 -10 -74 -12 -74 -2 0 3 7 14 16 24 15 17 18 17 40 2
13 -8 21 -19 18 -24z m-2346 -6 c91 -52 97 -65 35 -82 -48 -14 -73 0 -73 40 0
17 -5 39 -10 50 -14 25 -8 24 48 -8z m2778 -58 c3 -25 4 -48 1 -52 -3 -3 -37
-7 -74 -10 -65 -4 -67 -3 -48 12 22 19 20 19 -73 -1 -44 -9 -97 17 -98 49 l-2
27 30 -25 c39 -33 73 -32 107 4 21 22 39 31 72 34 24 2 52 4 61 5 13 2 18 -9
24 -43z m-449 -4 c3 -32 2 -33 -14 -18 -10 8 -31 19 -48 23 l-30 7 28 -22 c35
-29 57 -71 57 -112 l0 -33 -35 34 c-46 45 -96 47 -131 6 -28 -31 -32 -82 -9
-112 13 -18 14 -17 15 19 0 40 35 87 64 87 42 0 72 -86 59 -167 -5 -31 -7 -32
-26 -18 -36 25 -74 19 -92 -15 -15 -30 -9 -40 12 -19 14 14 88 -42 96 -71 4
-16 1 -18 -23 -13 -15 3 -36 0 -47 -6 -16 -9 -14 -10 13 -11 22 0 36 -8 52
-30 l23 -30 -25 0 c-36 0 -182 -148 -174 -176 1 -5 -6 -42 -16 -83 -15 -58
-16 -78 -7 -93 8 -14 9 -24 0 -39 -8 -16 -7 -24 5 -38 9 -10 13 -20 10 -24 -4
-3 1 -24 10 -46 l16 -41 -68 -130 c-64 -123 -82 -149 -82 -115 0 9 -18 35 -39
58 l-40 43 41 54 c50 66 68 108 68 156 0 50 -32 97 -90 133 l-48 30 14 58 c29
112 47 158 77 192 45 53 67 108 67 175 0 51 6 71 46 145 49 90 107 180 158
244 27 34 34 38 69 35 37 -3 40 -5 44 -37z m943 9 c0 -10 -31 -22 -38 -16 -2
3 -2 12 1 20 6 15 37 12 37 -4z m-3010 -12 c0 -19 -2 -20 -10 -8 -13 19 -13
30 0 30 6 0 10 -10 10 -22z m38 -7 c10 -6 10 -10 -3 -21 -8 -7 -15 -10 -15 -7
0 3 -3 12 -6 21 -7 17 3 20 24 7z m605 -53 c41 -57 125 -202 139 -238 4 -12
-4 -15 -33 -16 -35 -2 -39 1 -46 30 -7 31 -10 42 -12 61 0 5 -6 4 -12 -2 -9
-9 -9 -24 1 -59 13 -44 12 -48 -7 -63 -30 -25 -40 -49 -48 -118 l-7 -62 -44
33 c-58 44 -106 52 -183 30 -34 -9 -61 -19 -61 -22 0 -3 10 -16 22 -29 17 -19
18 -23 6 -23 -9 0 -57 44 -108 98 -90 96 -91 97 -85 139 5 31 1 52 -14 82 -12
22 -21 42 -21 44 0 3 18 7 39 11 22 3 42 10 45 15 4 5 -3 7 -14 4 -11 -3 -32
2 -46 12 -25 16 -25 17 -8 36 9 10 26 19 37 19 23 0 202 -92 279 -145 29 -19
58 -35 64 -35 22 0 57 103 62 183 2 42 6 77 8 77 2 0 23 -28 47 -62z m1007
-21 c13 -9 41 -17 62 -17 44 0 46 -6 17 -55 l-21 -35 -40 39 c-22 22 -48 43
-59 46 -21 7 -22 9 -12 44 5 20 8 21 17 10 6 -8 22 -23 36 -32z m617 27 l24
-7 -32 -33 c-18 -19 -37 -34 -41 -34 -4 0 -8 21 -8 46 0 38 3 45 16 40 9 -3
27 -9 41 -12z m-2124 -1 c-7 -2 -19 -2 -25 0 -7 3 -2 5 12 5 14 0 19 -2 13 -5z
m1987 -22 c0 -12 -20 -36 -20 -24 0 6 -3 19 -6 27 -5 12 -2 15 10 10 9 -3 16
-9 16 -13z m463 -50 l28 -18 -69 -56 c-38 -30 -108 -92 -155 -137 -47 -44 -83
-72 -81 -62 6 22 -24 51 -62 58 -15 3 -31 7 -36 10 -12 7 53 123 75 136 20 11
51 -7 44 -26 -2 -6 -1 -20 3 -31 7 -18 8 -17 15 9 10 38 -5 60 -44 64 -39 4
-39 18 0 65 28 34 35 37 82 38 29 0 70 4 92 8 35 6 43 4 60 -16 11 -13 33 -32
48 -42z m-1381 -321 l-5 -275 -48 240 c-27 132 -48 246 -49 253 0 6 8 12 19
12 10 0 33 11 52 23 19 13 35 23 35 23 1 -1 -1 -125 -4 -276z m-1684 186 c-6
-47 -38 -102 -60 -103 -7 0 -29 -4 -48 -7 -33 -7 -36 -6 -35 16 0 33 81 126
114 131 14 2 28 5 30 6 2 0 1 -19 -1 -43z m-88 29 c0 -12 -63 -74 -71 -69 -5
3 -9 21 -9 40 0 33 1 34 40 34 22 0 40 -2 40 -5z m2850 -161 c7 -17 6 -32 -1
-47 -19 -36 -51 -67 -71 -67 -25 0 -23 25 3 27 12 1 23 4 26 7 9 9 -8 26 -28
26 -26 0 -24 20 6 53 32 34 53 34 65 1z m-1687 -211 c-54 -162 -9 -279 123
-319 74 -22 125 -18 187 15 l56 29 10 -51 c20 -106 24 -135 32 -252 4 -66 13
-168 19 -227 6 -58 9 -188 8 -288 l-3 -182 -38 133 c-22 74 -39 139 -39 144 0
6 8 45 17 88 16 71 16 86 2 165 -20 117 -49 191 -98 246 -51 58 -85 76 -142
76 l-44 0 -69 108 c-69 106 -69 107 -66 168 5 74 -22 134 -70 164 l-32 19 70
4 c38 1 74 4 81 5 9 1 8 -11 -4 -45z m-1413 -3 c11 -21 4 -25 -19 -11 -7 5
-10 14 -7 20 10 15 14 14 26 -9z m2308 -92 c-14 -58 -32 -75 -23 -23 9 54 13
65 24 65 5 0 5 -17 -1 -42z m622 -404 c0 -2 -7 -4 -15 -4 -8 0 -15 4 -15 10 0
5 7 7 15 4 8 -4 15 -8 15 -10z m-458 -136 c32 -48 31 -63 -4 -75 -18 -6 -51
-14 -73 -18 -22 -4 -46 -11 -52 -17 -15 -12 -16 7 -6 90 l6 53 33 -32 c31 -30
34 -31 34 -12 0 12 3 28 6 37 8 20 34 7 56 -26z m-99 -462 c-4 -12 -17 -57
-29 -101 l-23 -80 0 123 -1 123 30 -23 c23 -17 28 -27 23 -42z"/>
<path d="M8340 7167 c-86 -45 -192 -107 -236 -138 -105 -73 -232 -148 -316
-189 l-67 -33 17 -30 c27 -48 106 -123 155 -146 37 -18 44 -26 45 -52 1 -42
12 -51 12 -10 0 31 2 33 28 26 104 -26 207 -28 270 -4 23 9 31 -4 11 -17 -6
-3 -22 -31 -36 -62 -55 -126 -50 -229 15 -280 53 -42 150 -88 202 -97 44 -7
45 -7 28 12 -16 18 -15 19 31 36 83 29 159 120 179 214 l8 38 13 -38 c12 -35
11 -41 -7 -60 -30 -32 -62 -107 -62 -145 0 -18 -12 -54 -26 -78 -15 -25 -25
-46 -23 -48 2 -1 22 -13 44 -26 22 -13 58 -40 80 -61 102 -97 238 -91 384 16
71 52 112 117 122 193 4 30 14 59 21 64 17 11 70 4 108 -16 17 -8 30 -10 30
-6 0 14 -30 27 -95 40 -60 12 -105 35 -105 52 0 5 9 7 19 3 19 -6 19 -4 5 54
-18 78 -48 141 -82 174 -32 31 -172 109 -172 97 0 -29 57 -154 90 -198 46 -60
48 -67 18 -50 -14 8 -62 13 -125 13 -89 0 -100 2 -93 16 5 9 17 22 26 30 25
20 54 95 54 137 0 51 -31 97 -87 131 -98 60 -125 93 -88 107 25 10 19 71 -10
101 -13 15 -28 24 -31 20 -4 -4 -2 -13 4 -19 17 -17 15 -35 -10 -68 -17 -23
-19 -32 -9 -44 16 -19 -2 -30 -28 -16 -25 13 -76 13 -104 -1 -12 -6 -37 -27
-55 -47 -37 -40 -33 -28 9 31 75 103 91 283 37 400 -15 31 -31 57 -35 56 -4 0
-78 -37 -163 -82z m395 -397 c17 -34 19 -69 4 -90 -8 -12 -9 -9 -5 11 3 15 -2
40 -14 62 -23 42 -24 47 -10 47 5 0 16 -13 25 -30z"/>
<path d="M3418 5813 c-33 -35 -64 -98 -73 -146 -9 -47 -17 -41 -79 53 -66 100
-70 99 -62 -6 4 -49 10 -100 13 -113 l6 -24 -22 22 c-12 12 -33 26 -47 31 -33
13 -115 13 -134 0 -12 -7 -8 -10 14 -10 39 0 111 -36 136 -67 27 -34 25 -44
-6 -33 -51 20 -103 12 -135 -20 -26 -26 -30 -36 -27 -76 3 -40 8 -51 40 -77
46 -37 56 -31 29 14 -26 42 -27 91 -3 112 36 33 93 11 134 -50 33 -50 58 -91
58 -96 0 -1 -18 -3 -40 -3 -64 -1 -101 -55 -71 -103 8 -12 11 -9 16 12 7 26 9
27 64 21 32 -4 64 -14 74 -24 18 -17 18 -18 -11 -28 -17 -6 -36 -20 -42 -32
l-11 -21 38 19 c35 17 40 17 69 2 l30 -16 -27 -27 c-18 -17 -26 -35 -25 -52 2
-13 0 -22 -4 -20 -8 5 -15 -26 -26 -117 -5 -47 -2 -66 15 -103 11 -25 21 -53
21 -63 0 -10 4 -22 9 -27 5 -6 11 -21 13 -35 2 -14 14 -30 27 -37 16 -7 26
-22 29 -40 4 -34 5 -35 35 -35 16 0 24 -6 23 -16 0 -9 19 -29 44 -46 84 -57
197 -44 315 35 26 18 50 41 53 51 2 10 8 18 12 18 14 0 32 89 26 132 -3 24 -6
50 -6 58 -2 46 -51 173 -71 186 -5 3 -20 22 -33 42 -39 60 -88 108 -136 133
-25 13 -48 22 -52 21 -5 -1 -8 11 -8 28 0 33 -2 35 -32 19 -33 -18 -41 9 -10
36 l26 22 -22 8 c-13 4 -29 2 -37 -5 -23 -19 -36 -2 -29 38 10 54 22 72 48 72
17 0 28 -10 40 -32 l16 -33 0 32 c0 47 -64 84 -96 54 -5 -5 -20 -11 -34 -13
-24 -3 -25 -1 -32 71 -8 89 2 121 36 121 15 0 27 -7 31 -19 3 -11 13 -25 22
-33 15 -12 16 -10 9 17 -4 17 -16 37 -27 47 -18 15 -22 15 -59 1 -22 -9 -43
-14 -46 -10 -9 9 13 134 30 169 18 36 19 38 8 38 -5 0 -20 -12 -34 -27z m429
-1209 c-16 -9 -31 -13 -34 -10 -3 3 5 10 18 15 37 15 47 12 16 -5z"/>
<path d="M8092 3266 c-30 -14 -52 -29 -50 -34 1 -4 36 -70 76 -146 41 -76 72
-139 70 -141 -1 -2 -26 12 -53 30 -52 35 -84 43 -193 52 l-63 5 -59 -62 c-33
-33 -60 -66 -60 -72 0 -6 -11 -21 -25 -34 -25 -23 -34 -68 -15 -79 6 -3 10
-21 10 -38 0 -27 13 -45 83 -114 45 -45 95 -86 110 -92 16 -6 59 -11 96 -11
73 0 121 23 121 58 0 10 10 22 22 27 12 6 39 35 60 65 32 44 38 62 36 93 -2
20 -1 37 2 37 3 0 14 -17 25 -37 11 -20 25 -38 31 -40 5 -2 31 11 57 28 53 35
101 121 113 201 20 149 -120 314 -279 325 -52 3 -71 0 -115 -21z"/>
</g>
</svg>
